HIERARCHY
ROOT RootJoint
{
    OFFSET   0.000000   0.000000   0.000000
    CHANNELS 6 Xposition Yposition Zposition Xrotation Yrotation Zrotation
    JOINT pelvis_lowerback
    {
        OFFSET   0.000000   0.093605   0.000000
        CHANNELS 3 Xrotation Yrotation Zrotation
        JOINT lowerback_torso
        {
            OFFSET   0.000000   0.100000   0.000000
            CHANNELS 3 Xrotation Yrotation Zrotation
            JOINT torso_head
            {
                OFFSET   0.000000   0.282350   0.000000
                CHANNELS 3 Xrotation Yrotation Zrotation
                End Site
                {
                    OFFSET   0.000000   0.192650   0.000000
                }
            }
            JOINT rTorso_Clavicle
            {
                OFFSET  -0.001000   0.157500   0.000000
                CHANNELS 3 Xrotation Yrotation Zrotation
                JOINT rShoulder
                {
                    OFFSET  -0.117647   0.000000   0.000000
                    CHANNELS 3 Xrotation Yrotation Zrotation
                    JOINT rElbow
                    {
                        OFFSET  -0.245000   0.000000   0.000000
                        CHANNELS 3 Xrotation Yrotation Zrotation
                        JOINT rWrist
                        {
                            OFFSET  -0.240000   0.000000   0.000000
                            CHANNELS 3 Xrotation Yrotation Zrotation
                            End Site
                            {
                                OFFSET  -0.116353  -0.002500   0.000000
                            }
                        }
                    }
                }
            }
            JOINT lTorso_Clavicle
            {
                OFFSET   0.001000   0.157500   0.000000
                CHANNELS 3 Xrotation Yrotation Zrotation
                JOINT lShoulder
                {
                    OFFSET   0.117647   0.000000   0.000000
                    CHANNELS 3 Xrotation Yrotation Zrotation
                    JOINT lElbow
                    {
                        OFFSET   0.245000   0.000000   0.000000
                        CHANNELS 3 Xrotation Yrotation Zrotation
                        JOINT lWrist
                        {
                            OFFSET   0.240000   0.000000   0.000000
                            CHANNELS 3 Xrotation Yrotation Zrotation
                            End Site
                            {
                                OFFSET   0.116353  -0.002500   0.000000
                            }
                        }
                    }
                }
            }
        }
    }
    JOINT rHip
    {
        OFFSET  -0.100000  -0.051395   0.000000
        CHANNELS 3 Xrotation Yrotation Zrotation
        JOINT rKnee
        {
            OFFSET   0.000000  -0.410000   0.000000
            CHANNELS 3 Xrotation Yrotation Zrotation
            JOINT rAnkle
            {
                OFFSET   0.000000  -0.390000   0.000000
                CHANNELS 3 Xrotation Yrotation Zrotation
                JOINT rToeJoint
                {
                    OFFSET   0.000000  -0.050000   0.130000
                    CHANNELS 3 Xrotation Yrotation Zrotation
                    End Site
                    {
                        OFFSET  -0.010000   0.002000   0.060000
                    }
                }
            }
        }
    }
    JOINT lHip
    {
        OFFSET   0.100000  -0.051395   0.000000
        CHANNELS 3 Xrotation Yrotation Zrotation
        JOINT lKnee
        {
            OFFSET   0.000000  -0.410000   0.000000
            CHANNELS 3 Xrotation Yrotation Zrotation
            JOINT lAnkle
            {
                OFFSET   0.000000  -0.390000   0.000000
                CHANNELS 3 Xrotation Yrotation Zrotation
                JOINT lToeJoint
                {
                    OFFSET   0.000000  -0.050000   0.130000
                    CHANNELS 3 Xrotation Yrotation Zrotation
                    End Site
                    {
                        OFFSET   0.010000   0.002000   0.060000
                    }
                }
            }
        }
    }
}
MOTION
Frames: 11
Frame Time:   0.008333
 -2.376719   0.925631   3.975860   0.000000   0.000000   0.000000   0.000000   0.000000   0.000000   0.000000   0.000000   0.000000   0.000000   0.000000   0.000000   0.000000   0.000000   0.000000   0.000000   0.000000   0.000000   0.000000   0.000000   0.000000   0.000000   0.000000   0.000000   0.000000   0.000000   0.000000   0.000000   0.000000   0.000000   0.000000   0.000000   0.000000   0.000000   0.000000   0.000000   0.000000   0.000000   0.000000   0.000000   0.000000   0.000000   0.000000   0.000000   0.000000   0.000000   0.000000   0.000000   0.000000   0.000000   0.000000   0.000000   0.000000   0.000000   0.000000   0.000000   0.000000   0.000000   0.000000   0.000000
 -2.376685   0.925396   3.973860  -0.985487   0.613685  -0.232373   1.694303  -0.156277   0.204260  -0.194053  -0.155518   0.241687  -0.007970  -0.295705   0.044094  -0.525358  -0.364442  -0.223785  -1.980145  -0.456933   1.077799   0.030999   3.552566   0.060921   0.050281  -1.604741  -1.262078  -0.517758   0.182318  -0.031582  -0.051116  -0.749849  -1.723527   0.045968  -3.386859  -0.000106   0.061184   1.994188   1.490410  -0.129868  -1.074714  -0.024639   2.937888   0.006131  -0.012030  -1.856533  -0.186293   0.272046  -0.291054   0.000030   0.001638  -0.079224  -0.008594   0.575658   3.177224  -0.008913   0.017126  -2.826761   0.227774  -0.038048   0.256740  -0.000699   0.001856
 -2.376659   0.924945   3.971389  -2.184136   1.430523  -0.460539   3.443364  -0.392321   0.446438  -0.149073  -0.438243   0.504176   0.062362  -0.571674   0.130710  -1.031532  -0.559264  -0.110715  -3.845474  -0.747387   2.333774   0.067824   7.247426   0.105383   0.039399  -2.214073  -2.096517  -1.005285   0.025247  -0.525399  -0.145645  -1.775064  -3.710357   0.107887  -6.973278   0.003447   0.121241   2.767486   2.396972  -0.265250  -2.134121  -0.300897   6.055790   0.016909  -0.017821  -3.573148  -0.381755   0.512968  -0.574802  -0.000590   0.002426   0.003773   0.023839   1.439512   6.721102  -0.022771   0.042380  -5.458725   0.457176  -0.063252   0.427560  -0.001438   0.003106
 -2.376668   0.924026   3.968664  -3.409627   2.305154  -0.645441   5.135851  -0.678892   0.684920  -0.029315  -0.787400   0.746541   0.138548  -0.826990   0.228469  -1.501196  -0.599176   0.243932  -5.583472  -0.942984   3.687554   0.102760  10.994093   0.137469   0.031971  -2.403380  -2.508963  -1.463749  -0.356445  -1.296212  -0.284715  -2.918343  -5.798201   0.172671 -10.638069   0.007573   0.191406   2.939608   2.782871  -0.486700  -3.127946  -0.815189   8.999997   0.029137  -0.020976  -5.170279  -0.574531   0.728611  -0.822947  -0.001448   0.002704   0.165621   0.077710   2.513656  10.325108  -0.037615   0.068755  -7.909753   0.679862  -0.075254   0.600348  -0.002375   0.004282
 -2.376710   0.922464   3.965824  -4.617268   3.155602  -0.785280   6.758926  -0.988883   0.906784   0.119654  -1.166190   0.959158   0.204661  -1.064480   0.325590  -1.937116  -0.530666   0.752287  -7.199727  -1.087432   5.083703   0.131642  14.771510   0.160560   0.027027  -2.383202  -2.607795  -1.898347  -0.871868  -2.227281  -0.465621  -4.105167  -7.906807   0.233678 -14.349165   0.011919   0.265836   2.793738   2.802638  -0.812324  -4.052160  -1.527689  11.723053   0.040616  -0.024297  -6.661101  -0.762914   0.922573  -1.054848  -0.002383   0.002851   0.381948   0.141963   3.753399  13.942240  -0.051687   0.093359 -10.196217   0.892943  -0.074836   0.761511  -0.003290   0.005133
 -2.376765   0.920142   3.962987  -5.778840   3.938858  -0.884963   8.297378  -1.305940   1.105766   0.279699  -1.553543   1.138873   0.260021  -1.285944   0.418025  -2.341982  -0.391176   1.348798  -8.700587  -1.206897   6.479948   0.151992  18.538223   0.176899   0.023126  -2.235274  -2.490678  -2.312198  -1.460075  -3.245099  -0.682809  -5.290343  -9.988690   0.287652 -18.089126   0.016445   0.338996   2.469924   2.575737  -1.251089  -4.904283  -2.400759  14.225719   0.050030  -0.028518  -8.053622  -0.945810   1.097496  -1.273354  -0.003276   0.002990   0.683639   0.212805   5.119896  17.374983  -0.063025   0.112970 -12.327177   1.094741  -0.063259   0.916304  -0.004149   0.005717
 -2.376816   0.916980   3.960216  -6.883746   4.658282  -0.950400   9.753418  -1.625119   1.280232   0.442934  -1.939614   1.284945   0.305493  -1.493376   0.505254  -2.720411  -0.197027   1.983203 -10.094911  -1.305212   7.844816   0.161054  22.077624   0.185692   0.022844  -1.936502  -2.234783  -2.708725  -2.090527  -4.300575  -0.930782  -6.452304 -12.014611   0.333451 -21.849214   0.021292   0.407293   2.041246   2.186835  -1.793368  -5.683669  -3.398581  16.520363   0.056872  -0.032975  -9.354589  -1.122471   1.255241  -1.478727  -0.004046   0.003113   1.051728   0.285709   6.579303  20.608777  -0.071342   0.127953 -14.315584   1.284210  -0.042650   1.057541  -0.004827   0.006012
 -2.376594   0.912675   3.956924  -7.320722   5.138811  -0.953823  10.759712  -1.804050   1.389291   0.233149  -2.236159   1.381625   0.231918  -1.876309   0.585367  -3.055662  -0.143610   2.492069 -11.699482  -1.397417   8.988063   0.149715  25.706265   0.208083  -0.022792  -1.817100  -1.539885  -2.809931  -2.555815  -4.967438  -1.201141  -7.801005 -14.147549   0.365597 -25.641230   0.032746   0.451211   1.523334   1.331625  -3.390529  -6.758609  -4.666013  19.247141   0.062662  -0.053581  -9.699841  -1.529745   1.584784  -1.616384  -0.004061   0.004013   0.944128   0.372566   7.897270  22.895881  -0.071178   0.125844 -15.863083   1.518786  -0.239510   1.321274  -0.006067   0.007175
 -2.376262   0.907337   3.953699  -7.677316   5.602367  -0.946931  11.717768  -1.987073   1.508655  -0.015791  -2.524575   1.466095   0.135810  -2.240530   0.661932  -3.380568  -0.067904   2.870804 -13.207150  -1.480096   9.984005   0.127461  29.112806   0.222130  -0.073662  -1.601567  -0.953035  -2.912394  -3.024094  -5.523379  -1.500750  -9.078700 -16.114465   0.384387 -29.445752   0.043224   0.491189   0.958836   0.450747  -5.038079  -7.744280  -5.995125  21.795306   0.064499  -0.068688 -10.005398  -1.920737   1.887490  -1.658810  -0.003503   0.003677   0.815167   0.435228   9.192544  24.891300  -0.068770   0.121122 -17.313518   1.740008  -0.416935   1.561319  -0.006856   0.007835
 -2.375881   0.901029   3.950653  -8.002831   6.051704  -0.936667  12.628714  -2.167649   1.631478  -0.250656  -2.805361   1.542084   0.044401  -2.581101   0.735591  -3.692273   0.023302   3.153372 -14.621290  -1.557301  10.861831   0.100428  32.302095   0.229176  -0.119179  -1.335766  -0.500383  -3.023578  -3.490922  -5.996582  -1.827214 -10.283801 -17.929915   0.393979 -33.258521   0.052625   0.527295   0.377031  -0.342844  -6.649213  -8.616226  -7.339801  24.153142   0.063432  -0.078209 -10.289953  -2.288374   2.166833  -1.697243  -0.003023   0.003347   0.690068   0.482934  10.469176  26.723709  -0.065428   0.115628 -18.669082   1.949954  -0.576077   1.776659  -0.007274   0.008109
 -2.375479   0.893802   3.947837  -8.304711   6.479035  -0.924302  13.488640  -2.340987   1.750931  -0.468940  -3.075066   1.607867  -0.038449  -2.899086   0.805287  -3.990552   0.121052   3.364541 -15.947262  -1.632368  11.642513   0.072233  35.285814   0.231085  -0.160260  -1.041093  -0.157234  -3.141077  -3.945685  -6.405205  -2.172988 -11.413982 -19.612666   0.397312 -37.077080   0.060853   0.559407  -0.208482  -1.048701  -8.207001  -9.382497  -8.675646  26.338731   0.060382  -0.083451 -10.555475  -2.633228   2.425003  -1.735462  -0.002625   0.003065   0.575725   0.518810  11.717982  28.425155  -0.061575   0.109617 -19.934731   2.148821  -0.718730   1.973006  -0.007431   0.008111
